<svg width="420" height="318" viewBox="0 0 420 318" fill="none" xmlns="http://www.w3.org/2000/svg" role="img" aria-label="Pódio da Live">
  <rect x="1" y="1" width="418" height="316" rx="8" fill="white" fill-opacity=".72"/>
  <rect x="1" y="1" width="418" height="316" rx="8" stroke="#111318" stroke-opacity=".08"/>
  <path d="M52 238h316" stroke="#111318" stroke-opacity=".08" stroke-width="2" stroke-linecap="round"/>
  <rect x="82" y="168" width="76" height="70" rx="8" fill="#E8F9FD"/>
  <rect x="172" y="104" width="76" height="134" rx="8" fill="#FFF5DC"/>
  <rect x="262" y="137" width="76" height="101" rx="8" fill="#EDF3FF"/>
  <rect x="82" y="168" width="76" height="70" rx="8" stroke="#00B8D9" stroke-opacity=".35"/>
  <rect x="172" y="104" width="76" height="134" rx="8" stroke="#C9972E" stroke-opacity=".35"/>
  <rect x="262" y="137" width="76" height="101" rx="8" stroke="#2878FF" stroke-opacity=".35"/>
  <path d="M196 66.5 210 55l14 11.5L210 78l-14-11.5Z" fill="#C9972E"/>
  <path d="M210 78v18" stroke="#C9972E" stroke-width="2" stroke-linecap="round"/>
  <text x="120" y="211" text-anchor="middle" font-family="-apple-system, BlinkMacSystemFont, 'Segoe UI', sans-serif" font-size="28" font-weight="800" fill="#00B8D9">2</text>
  <text x="210" y="181" text-anchor="middle" font-family="-apple-system, BlinkMacSystemFont, 'Segoe UI', sans-serif" font-size="32" font-weight="850" fill="#C9972E">1</text>
  <text x="300" y="196" text-anchor="middle" font-family="-apple-system, BlinkMacSystemFont, 'Segoe UI', sans-serif" font-size="28" font-weight="800" fill="#2878FF">3</text>
  <rect x="76" y="262" width="89" height="8" rx="4" fill="#111318" fill-opacity=".09"/>
  <rect x="169" y="262" width="82" height="8" rx="4" fill="#111318" fill-opacity=".14"/>
  <rect x="257" y="262" width="88" height="8" rx="4" fill="#111318" fill-opacity=".09"/>
  <circle cx="90" cy="72" r="4" fill="#00B8D9" fill-opacity=".35"/>
  <circle cx="333" cy="79" r="4" fill="#2878FF" fill-opacity=".22"/>
  <circle cx="357" cy="219" r="3" fill="#C9972E" fill-opacity=".35"/>
</svg>
