<svg width="260" height="180" viewBox="0 0 260 180" fill="none" xmlns="http://www.w3.org/2000/svg" role="img" aria-label="Pódio">
  <rect x="6" y="6" width="248" height="168" rx="8" fill="white" fill-opacity=".68"/>
  <rect x="6" y="6" width="248" height="168" rx="8" stroke="#111318" stroke-opacity=".08"/>
  <path d="M37 132h186" stroke="#111318" stroke-opacity=".08" stroke-width="2" stroke-linecap="round"/>
  <rect x="52" y="91" width="42" height="41" rx="8" fill="#E8F9FD"/>
  <rect x="109" y="56" width="42" height="76" rx="8" fill="#FFF5DC"/>
  <rect x="166" y="76" width="42" height="56" rx="8" fill="#EDF3FF"/>
  <rect x="52" y="91" width="42" height="41" rx="8" stroke="#00B8D9" stroke-opacity=".35"/>
  <rect x="109" y="56" width="42" height="76" rx="8" stroke="#C9972E" stroke-opacity=".35"/>
  <rect x="166" y="76" width="42" height="56" rx="8" stroke="#2878FF" stroke-opacity=".35"/>
  <path d="M124.5 33.5 130 29l5.5 4.5L130 38l-5.5-4.5Z" fill="#C9972E"/>
  <text x="73" y="117" text-anchor="middle" font-family="-apple-system, BlinkMacSystemFont, 'Segoe UI', sans-serif" font-size="18" font-weight="700" fill="#00B8D9">2</text>
  <text x="130" y="97" text-anchor="middle" font-family="-apple-system, BlinkMacSystemFont, 'Segoe UI', sans-serif" font-size="20" font-weight="800" fill="#C9972E">1</text>
  <text x="187" y="107" text-anchor="middle" font-family="-apple-system, BlinkMacSystemFont, 'Segoe UI', sans-serif" font-size="18" font-weight="700" fill="#2878FF">3</text>
  <rect x="48" y="144" width="50" height="6" rx="3" fill="#111318" fill-opacity=".10"/>
  <rect x="106" y="144" width="48" height="6" rx="3" fill="#111318" fill-opacity=".16"/>
  <rect x="164" y="144" width="50" height="6" rx="3" fill="#111318" fill-opacity=".10"/>
</svg>
